HIERARCHY
ROOT hip
{
  OFFSET 0 0 0
  CHANNELS 6 Xposition Yposition Zposition Zrotation Yrotation Xrotation
  JOINT abdomen
  {
    OFFSET 0 20.6881 -0.73152
    CHANNELS 3 Zrotation Xrotation Yrotation
    JOINT chest
    {
      OFFSET 0 11.7043 -0.48768
      CHANNELS 3 Zrotation Xrotation Yrotation
      JOINT neck
      {
        OFFSET 0 22.1894 -2.19456
        CHANNELS 3 Zrotation Xrotation Yrotation
        JOINT head
        {
          OFFSET -0.24384 7.07133 1.2192
          CHANNELS 3 Zrotation Xrotation Yrotation
          JOINT leftEye
          {
            OFFSET 4.14528 8.04674 8.04672
            CHANNELS 3 Zrotation Xrotation Yrotation
            End Site
            {
              OFFSET 1 0 0
            }
          }
          JOINT rightEye
          {
            OFFSET -3.6576 8.04674 8.04672
            CHANNELS 3 Zrotation Xrotation Yrotation
            End Site
            {
              OFFSET 1 0 0
            }
          }
        }
      }
      JOINT rCollar
      {
        OFFSET -2.68224 19.2634 -4.8768
        CHANNELS 3 Zrotation Xrotation Yrotation
        JOINT rShldr
        {
          OFFSET -8.77824 -1.95073 1.46304
          CHANNELS 3 Zrotation Xrotation Yrotation
          JOINT rForeArm
          {
            OFFSET -28.1742 -1.7115 0.48768
            CHANNELS 3 Zrotation Xrotation Yrotation
            JOINT rHand
            {
              OFFSET -22.5879 0.773209 7.07136
              CHANNELS 3 Zrotation Xrotation Yrotation
              JOINT rThumb1
              {
                OFFSET -1.2192 -0.487915 3.41376
                CHANNELS 3 Zrotation Xrotation Yrotation
                JOINT rThumb2
                {
                  OFFSET -3.37035 -0.52449 3.41376
                  CHANNELS 3 Zrotation Xrotation Yrotation
                  End Site
                  {
                    OFFSET -1.78271 -1.18214 1.43049
                  }
                }
              }
              JOINT rIndex1
              {
                OFFSET -7.75947 0.938293 5.60832
                CHANNELS 3 Zrotation Xrotation Yrotation
                JOINT rIndex2
                {
                  OFFSET -2.54057 -0.884171 1.56538
                  CHANNELS 3 Zrotation Xrotation Yrotation
                  End Site
                  {
                    OFFSET -1.62519 -0.234802 1.16502
                  }
                }
              }
              JOINT rMid1
              {
                OFFSET -8.24714 1.18213 3.41376
                CHANNELS 3 Zrotation Xrotation Yrotation
                JOINT rMid2
                {
                  OFFSET -3.10165 -0.590103 1.0647
                  CHANNELS 3 Zrotation Xrotation Yrotation
                  End Site
                  {
                    OFFSET -2.48547 -0.328903 0.83742
                  }
                }
              }
              JOINT rRing1
              {
                OFFSET -8.82822 0.546677 1.51678
                CHANNELS 3 Zrotation Xrotation Yrotation
                JOINT rRing2
                {
                  OFFSET -2.60934 -0.819778 -0.0198488
                  CHANNELS 3 Zrotation Xrotation Yrotation
                  End Site
                  {
                    OFFSET -2.33842 -0.294052 0.168128
                  }
                }
              }
              JOINT rPinky1
              {
                OFFSET -8.27202 -0.0477905 -0.4584
                CHANNELS 3 Zrotation Xrotation Yrotation
                JOINT rPinky2
                {
                  OFFSET -1.82734 -0.647385 -0.700984
                  CHANNELS 3 Zrotation Xrotation Yrotation
                  End Site
                  {
                    OFFSET -1.69225 -0.51767 -0.607171
                  }
                }
              }
            }
          }
        }
      }
      JOINT lCollar
      {
        OFFSET 2.68224 19.2634 -4.8768
        CHANNELS 3 Zrotation Xrotation Yrotation
        JOINT lShldr
        {
          OFFSET 8.77824 -1.95073 1.46304
          CHANNELS 3 Zrotation Xrotation Yrotation
          JOINT lForeArm
          {
            OFFSET 28.1742 -1.7115 0.48768
            CHANNELS 3 Zrotation Xrotation Yrotation
            JOINT lHand
            {
              OFFSET 22.5879 0.773209 7.07136
              CHANNELS 3 Zrotation Xrotation Yrotation
              JOINT lThumb1
              {
                OFFSET 1.2192 -0.487915 3.41376
                CHANNELS 3 Zrotation Xrotation Yrotation
                JOINT lThumb2
                {
                  OFFSET 3.37035 -0.52449 3.41376
                  CHANNELS 3 Zrotation Xrotation Yrotation
                  End Site
                  {
                    OFFSET 1.78271 -1.18214 1.43049
                  }
                }
              }
              JOINT lIndex1
              {
                OFFSET 7.75947 0.938293 5.60832
                CHANNELS 3 Zrotation Xrotation Yrotation
                JOINT lIndex2
                {
                  OFFSET 2.54057 -0.884171 1.56538
                  CHANNELS 3 Zrotation Xrotation Yrotation
                  End Site
                  {
                    OFFSET 1.62519 -0.234802 1.16502
                  }
                }
              }
              JOINT lMid1
              {
                OFFSET 8.24714 1.18213 3.41376
                CHANNELS 3 Zrotation Xrotation Yrotation
                JOINT lMid2
                {
                  OFFSET 3.10165 -0.590103 1.0647
                  CHANNELS 3 Zrotation Xrotation Yrotation
                  End Site
                  {
                    OFFSET 2.48547 -0.328903 0.83742
                  }
                }
              }
              JOINT lRing1
              {
                OFFSET 8.82822 0.546677 1.51678
                CHANNELS 3 Zrotation Xrotation Yrotation
                JOINT lRing2
                {
                  OFFSET 2.60934 -0.819778 -0.0198488
                  CHANNELS 3 Zrotation Xrotation Yrotation
                  End Site
                  {
                    OFFSET 2.33842 -0.294052 0.168128
                  }
                }
              }
              JOINT lPinky1
              {
                OFFSET 8.27202 -0.0477905 -0.4584
                CHANNELS 3 Zrotation Xrotation Yrotation
                JOINT lPinky2
                {
                  OFFSET 1.82734 -0.647385 -0.700984
                  CHANNELS 3 Zrotation Xrotation Yrotation
                  End Site
                  {
                    OFFSET 1.69225 -0.51767 -0.607171
                  }
                }
              }
            }
          }
        }
      }
    }
  }
  JOINT rButtock
  {
    OFFSET -8.77824 4.35084 1.2192
    CHANNELS 3 Zrotation Xrotation Yrotation
    JOINT rThigh
    {
      OFFSET 0 -1.70687 -2.19456
      CHANNELS 3 Zrotation Xrotation Yrotation
      JOINT rShin
      {
        OFFSET 0 -36.8199 0.73152
        CHANNELS 3 Zrotation Xrotation Yrotation
        JOINT rFoot
        {
          OFFSET 0.73152 -45.1104 -5.12064
          CHANNELS 3 Zrotation Xrotation Yrotation
          End Site
          {
            OFFSET -1.1221 -3.69964 12.103
          }
        }
      }
    }
  }
  JOINT lButtock
  {
    OFFSET 8.77824 4.35084 1.2192
    CHANNELS 3 Zrotation Xrotation Yrotation
    JOINT lThigh
    {
      OFFSET 0 -1.70687 -2.19456
      CHANNELS 3 Zrotation Xrotation Yrotation
      JOINT lShin
      {
        OFFSET 0 -36.8199 0.73152
        CHANNELS 3 Zrotation Xrotation Yrotation
        JOINT lFoot
        {
          OFFSET -0.73152 -45.1104 -5.12064
          CHANNELS 3 Zrotation Xrotation Yrotation
          End Site
          {
            OFFSET 1.1221 -3.69964 12.103
          }
        }
      }
    }
  }
}
MOTION
Frames:	4
Frame Time:	0.03333
0.0 0.0 0.0 0.0 0.0 0.0 0.0 0.0 0.0 0.0 0.0 0.0 0.0 0.0 0.0 0.0 0.0 0.0 0.0 0.0 0.0 0.0 0.0 0.0 0.0 0.0 0.0 0.0 0.0 0.0 0.0 0.0 0.0 0.0 0.0 0.0 0.0 0.0 0.0 0.0 0.0 0.0 0.0 0.0 0.0 0.0 0.0 0.0 0.0 0.0 0.0 0.0 0.0 0.0 0.0 0.0 0.0 0.0 0.0 0.0 0.0 0.0 0.0 0.0 0.0 0.0 0.0 0.0 0.0 0.0 0.0 0.0 0.0 0.0 0.0 0.0 0.0 0.0 0.0 0.0 0.0 0.0 0.0 0.0 0.0 0.0 0.0 0.0 0.0 0.0 0.0 0.0 0.0 0.0 0.0 0.0 0.0 0.0 0.0 0.0 0.0 0.0 0.0 0.0 0.0 0.0 0.0 0.0 0.0 0.0 0.0 0.0 0.0 0.0 0.0 0.0 0.0 0.0 0.0 0.0 0.0 0.0 0.0 0.0 0.0 0.0 0.0 0.0 0.0 0.0 0.0 0.0
-0.0026999999999999997 5.8555 -0.0056 -179.898319 -17.577629 178.868184 -0.475424 5.402015 0.025037 -3.517263 -28.482402 83.685265 23.815373 19.399172 -160.015475 -122.270338 40.839394 57.872546 13.060658 -1.958484 -16.985047 12.006954 -0.866875 -8.228938 -46.322894 -55.581552 -169.709727 -151.366583 61.44975 160.777944 1.896949 -1.747679 1.574632 25.073371 -63.218622 25.013364 156.873211 41.44535 49.623588 102.703877 35.252113 63.527552 127.684493 -76.099029 -77.556481 93.724686 -49.148798 -137.657481 -169.362841 -52.866318 -178.641516 167.828145 -9.806054 -30.627295 61.770825 -85.487226 -107.168507 -172.71798 11.461398 2.534853 1.435553 -26.191298 -156.248007 6.155012 -70.547939 -177.275517 -43.881574 -59.896376 26.933501 -11.151342 -21.111285 -7.64652 13.86824 0.356519 -164.291104 -159.106254 -33.378614 -2.295138 -30.269371 73.88594 72.992204 134.890993 8.000994 -84.849092 21.953508 -16.585037 54.261287 162.899725 -12.803547 -109.392446 -19.466406 15.266236 -133.725968 -3.792113 37.832141 171.035143 -92.167441 53.347985 -87.153833 -103.620673 -83.529425 104.064969 -39.969986 -71.109869 152.281865 -175.759304 -47.56069 11.379639 -42.247641 -50.726326 2.096698 55.989194 31.51789 109.430434 9.240511 -5.876179 97.6476 -152.232596 63.219077 -10.55685 51.854927 -21.340122 48.717586 -31.477953 48.97745 -88.581653 -6.184787 -7.125783 -55.875289 105.08853 -4.935197 76.625921
-0.09659999999999999 7.41 0.0342 -4.288415 3.685394 4.795473 -1.313605 30.180101 0.613142 -1.19187 -71.778378 36.825443 96.139812 42.210917 1.251148 24.624882 9.289694 -142.82405 -14.920864 5.075506 -37.397649 -21.42326 4.256954 -22.231428 -52.261808 -32.430005 -124.447594 -4.799952 14.723859 -9.311816 -54.45737 5.715464 153.064876 44.642055 -54.860486 24.330898 168.948152 -37.500836 88.731536 148.860326 -48.37794 111.874833 -2.492749 39.323599 -13.189909 129.737088 -2.66324 -30.727868 123.396381 24.749002 -36.78166 94.890231 -49.204738 -157.710085 -61.844831 -10.377164 -156.276904 49.619649 11.790206 -12.651845 23.64084 -4.199327 -6.11301 -6.103765 -31.034599 -73.859534 134.657847 -27.432674 -165.126312 -174.808183 0.214449 -160.839505 -171.709448 -7.057205 -34.424694 -140.668682 51.085346 -124.787893 -18.359613 1.596179 0.338223 47.48876 15.941337 -36.774769 28.607262 38.623321 -53.937304 -156.259 1.63184 -159.171832 125.67142 -30.964013 -164.563736 160.966567 -19.196736 -134.422631 -11.805848 -1.336922 -9.239113 -86.237974 86.734481 69.252167 34.124014 -43.552136 59.164504 -13.17849 0.17667 -12.729225 -58.045955 4.026363 -12.114276 101.215021 -27.672442 -180.0 90.899359 -79.016485 1.831052 124.75589 24.823466 117.242139 -68.095485 46.223419 -39.781238 89.294925 -29.184791 -2.050254 -86.985648 21.650465 -11.425418 -111.952931 16.991499 -116.279093
-0.22399999999999998 9.6147 0.1996 -5.737844 2.219803 5.013646 -7.202834 66.328714 6.482078 63.232098 -75.408456 68.274939 136.942953 43.466234 -35.956367 -79.769458 29.245154 -123.395268 -69.401961 9.836127 -14.167018 -58.045823 4.840942 -8.713423 0.462716 0.390887 -13.211217 56.24567 -5.684212 -13.286131 0.504978 8.657557 107.060457 -5.150972 15.609117 -1.780752 170.147844 -40.286122 87.357352 114.010303 -63.233536 86.014244 18.863317 -20.079544 -16.756793 169.433179 53.157508 -100.643304 -24.059933 -20.890792 -175.730742 167.815339 75.480533 -32.772346 -45.256213 -0.656554 -170.268138 54.133534 -7.561947 8.991726 59.123264 -16.866993 -17.494812 -128.494675 29.874897 -150.299721 126.399482 -41.224104 -174.644506 20.494143 18.311075 11.748958 175.955897 34.967849 73.674779 -42.532023 -20.030946 41.213819 159.394564 -15.67116 -96.718873 56.754992 23.03796 -14.726992 -6.200858 2.597535 2.634992 -71.649591 -25.090181 -80.983781 135.218876 -9.54121 -149.891697 149.695569 10.104067 -121.172047 131.246528 24.181175 -154.268788 161.036892 -0.422384 -176.037119 112.982379 -3.062793 127.849068 108.604215 4.918042 109.428401 -70.011004 9.009239 -26.058631 112.29711 -13.453159 -31.91687 -91.638384 43.07677 34.723901 151.132223 25.746778 23.819811 155.173179 63.32312 27.372668 159.846197 12.740221 96.099349 89.684957 36.571241 -179.716217 57.550968 50.743423 116.51578
